<svg version="1.1" id="Слой_2" xmlns="http://www.w3.org/2000/svg" x="0" y="0" width="312.1" height="218" xml:space="preserve"><style>.st1{fill:#fff}.st8{fill:#b5b9ba}.st10{opacity:.2}</style><linearGradient id="SVGID_1_" gradientUnits="userSpaceOnUse" x1="73.369" y1="109.74" x2="258.846" y2="109.74"><stop offset="0" stop-color="#9361f0"/><stop offset="1" stop-color="#00b2e5"/></linearGradient><path d="M247.3 216.7H84.9c-5.5 0-10-4.5-10-10v-194c0-5.5 4.5-10 10-10h162.5c5.5 0 10 4.5 10 10v194c-.1 5.5-4.6 10-10.1 10z" fill="none" stroke="url(#SVGID_1_)" stroke-width="3" stroke-miterlimit="10"/><path class="st1" d="M296.1 199.8H36.2c-3.3 0-5.9-2.4-5.9-5.3V23.1c0-2.9 2.7-5.3 5.9-5.3h259.9c3.3 0 5.9 2.4 5.9 5.3v171.4c0 2.9-2.6 5.3-5.9 5.3z"/><path d="M106.8 126.4h8.7v34.4h-8.7zm13 10.4h8.7v24h-8.7zm-25.4 0h8.7v24h-8.7zm-25.5 20.9h8.7v3.2h-8.7zm12.9-4.9h8.7v8h-8.7zm-25.3 5.4h8.7v2.7h-8.7zm-13 0h8.7v2.7h-8.7zm90-16.5h8.7v19.2h-8.7zm13.7 5.2h8.7v13.9h-8.7zm13.6-10.1h8.7v24h-8.7zm13.7-14.9h8.7v39h-8.7zm13.7-11.6h8.7v50.5h-8.7zm13.7 16.1h8.7v34.4h-8.7zm13.7-30.9h8.7v65.3h-8.7zm13.6 30.9h8.7v34.4h-8.7zm13.7 10.4h8.7v24h-8.7zm13.7 4.6h8.7v19.5h-8.7zm13.7 5.5h8.7v13.9h-8.7z" fill="#767696"/><linearGradient id="SVGID_2_" gradientUnits="userSpaceOnUse" x1="50.603" y1="128.542" x2="281.281" y2="128.542"><stop offset="0" stop-color="#4749eb"/><stop offset="1" stop-color="#00e1bf"/></linearGradient><path d="M50.6 160.9h16.3c1.2 0 2.4 0 3.6-.2 2.5-.3 5.2-1.2 7.7-2.7 1.2-.8 2.4-1.8 3.4-3s1.7-2.7 2.4-4.2c1.4-3.1 2.6-6.4 3.8-9.9 1.2-3.5 2.5-7.2 3.9-11.1.7-1.9 1.4-3.9 2.2-5.9.8-2 1.7-3.9 3-5.8 1.2-1.8 2.7-3.6 4.4-5.1 1.7-1.5 3.8-2.7 6-3.5 2.2-.8 4.6-1.2 7-1.2 2.4 0 4.9.2 7.3.9 1.2.3 2.4.8 3.5 1.4 1.1.6 2.2 1.3 3.2 2.1 2 1.6 3.5 3.8 4.7 6.1 1.2 2.3 1.9 4.9 2.7 7.4.8 2.5 1.6 5.1 2.5 7.6 1.8 5 3.8 10.2 6.9 14.7 1.6 2.3 3.4 4.4 5.8 5.9 1.2.8 2.5 1.3 3.8 1.5.7.2 1.4.2 2.1.2.7 0 1.4 0 2.1-.1 1.9-.2 3.8-.6 5.4-1.5 1.7-.9 3-2.3 4.1-3.8 1.1-1.5 2-3.2 2.9-4.8.9-1.6 1.7-3.3 2.5-5 3-6.8 4.8-14 7.6-20.5 1.3-3.3 2.7-6.6 4.4-9.6 1.7-3 3.8-5.8 6.2-8.1 1.2-1.1 2.5-2.3 3.9-3.1 1.4-.9 3-1.5 4.5-2 3.1-1 6.3-1.3 9.4-1.1 3.1.1 6.1.7 8.9 1.7 2.8 1 5.3 2.6 7.4 4.5 4.2 3.7 7.3 8.1 10.8 11.6 3.5 3.5 7.7 5.6 11.7 6.9 4 1.3 7.9 1.9 11.3 2.1 6.9 0 12.2 0 15.9.1h4.1-4.1c-3.6 0-9 0-15.9.1-3.4-.3-7.3-.8-11.3-2.1-4-1.3-8.4-3.3-11.9-6.9-3.5-3.5-6.6-7.9-10.8-11.6-2.1-1.9-4.5-3.4-7.3-4.4-2.8-1-5.7-1.6-8.8-1.7-3.1-.1-6.2.2-9.3 1.1-3.1 1-5.9 2.6-8.3 5-2.4 2.3-4.5 5-6.1 8-1.7 3-3 6.2-4.3 9.5-2.8 6.6-4.6 13.7-7.6 20.6-.8 1.7-1.6 3.4-2.5 5.1-.9 1.6-1.8 3.3-3 4.9-1.1 1.6-2.5 3-4.3 3.9-1.7.9-3.7 1.4-5.6 1.6-.7.1-1.4.1-2.2.1-.7 0-1.5 0-2.2-.2-1.4-.3-2.8-.8-4-1.6-2.4-1.5-4.3-3.7-5.9-6-3.1-4.6-5.2-9.8-7-14.8-.9-2.5-1.7-5.1-2.5-7.6s-1.5-5-2.7-7.3c-1.2-2.3-2.7-4.4-4.6-6-.9-.8-2-1.5-3.1-2.1-1.1-.5-2.2-1-3.4-1.3-2.3-.7-4.8-.9-7.2-.9-2.4 0-4.7.4-6.9 1.2-4.4 1.6-7.9 4.8-10.2 8.4-2.4 3.7-3.7 7.7-5.1 11.5-1.4 3.8-2.6 7.5-3.9 11.1-1.3 3.5-2.5 6.9-3.9 9.9-.7 1.5-1.4 3-2.4 4.3-1 1.2-2.2 2.2-3.5 3-2.5 1.6-5.3 2.4-7.8 2.7-1.3.2-2.5.2-3.7.2H51.2c-.3-.2-.6-.2-.6-.2z" fill="url(#SVGID_2_)"/><linearGradient id="SVGID_3_" gradientUnits="userSpaceOnUse" x1="84.49" y1="92.522" x2="136.008" y2="92.522"><stop offset="0" stop-color="#9361f0"/><stop offset="1" stop-color="#00b2e5"/></linearGradient><path d="M134.6 80.9H85.9c-.8 0-1.4.6-1.4 1.4v16.8c0 .8.6 1.4 1.4 1.4h24.7c.4 0 .8.2 1 .5.8.9 1.8 2 2.6 2.8.6.6 1.5.6 2 0l2.5-2.8c.3-.3.6-.5 1-.5h14.9c.8 0 1.4-.6 1.4-1.4V82.3c0-.8-.6-1.4-1.4-1.4z" fill="url(#SVGID_3_)"/><linearGradient id="SVGID_4_" gradientUnits="userSpaceOnUse" x1="113.007" y1="108.241" x2="116.804" y2="108.241"><stop offset="0" stop-color="#4749eb"/><stop offset="1" stop-color="#00e1bf"/></linearGradient><path d="M116.8 108.2c0 1-.8 1.9-1.9 1.9-1 0-1.9-.8-1.9-1.9 0-1 .8-1.9 1.9-1.9 1.1 0 1.9.9 1.9 1.9z" fill="url(#SVGID_4_)"/><path d="M114.9 110.2c-1.1 0-1.9-.9-1.9-1.9 0-1.1.9-1.9 1.9-1.9 1.1 0 1.9.9 1.9 1.9 0 1-.8 1.9-1.9 1.9zm0-3.8c-1 0-1.9.8-1.9 1.9 0 1 .8 1.9 1.9 1.9 1 0 1.9-.8 1.9-1.9 0-1.1-.9-1.9-1.9-1.9z" fill="#1a2e35"/><path class="st1" d="M97.2 93.8v.9h-.8v-.9c-.8 0-1.6-.3-2.1-.7l.5-1c.4.3 1 .5 1.6.6v-1.4c-.9-.2-1.9-.5-1.9-1.7 0-.9.6-1.6 1.9-1.8V87h.8v.9c.6 0 1.2.2 1.7.5l-.4 1c-.5-.3-.9-.4-1.3-.4v1.4c.9.2 1.9.5 1.9 1.7 0 .8-.6 1.6-1.9 1.7zm-.8-3.6V89c-.4.1-.6.3-.6.6s.2.4.6.6zm1.4 2c0-.3-.2-.4-.6-.6v1.1c.4-.1.6-.3.6-.5zm4-4.3v5.8h-1.3V89h-1.2v-1.1h2.5zm5.4 4c0 1-.8 1.9-2.4 1.9-.8 0-1.7-.2-2.2-.6l.5-1c.4.3 1 .5 1.7.5s1.1-.3 1.1-.8-.3-.8-1.4-.8H103l.3-3.3h3.5V89h-2.4l-.1 1.1h.5c1.8 0 2.4.8 2.4 1.8zm2.2 1.1c0 .2 0 .4-.2.8l-.5 1.2h-.8l.4-1.3c-.3-.1-.4-.4-.4-.7 0-.5.3-.8.8-.8.3 0 .7.3.7.8zm.5-2.1c0-1.9 1.1-3 2.5-3s2.5 1.1 2.5 3-1.1 3-2.5 3c-1.5 0-2.5-1.1-2.5-3zm3.6 0c0-1.3-.5-1.9-1.1-1.9-.7 0-1.1.5-1.1 1.9 0 1.3.5 1.9 1.1 1.9.6-.1 1.1-.6 1.1-1.9zm2 0c0-1.9 1.1-3 2.5-3s2.5 1.1 2.5 3-1.1 3-2.5 3-2.5-1.1-2.5-3zm3.6 0c0-1.3-.5-1.9-1.1-1.9-.7 0-1.1.5-1.1 1.9 0 1.3.5 1.9 1.1 1.9.6-.1 1.1-.6 1.1-1.9zm2 0c0-1.9 1.1-3 2.5-3s2.5 1.1 2.5 3-1.1 3-2.5 3-2.5-1.1-2.5-3zm3.6 0c0-1.3-.5-1.9-1.1-1.9-.7 0-1.1.5-1.1 1.9 0 1.3.5 1.9 1.1 1.9.7-.1 1.1-.6 1.1-1.9z"/><path d="M302.2 32.7H30.1v-9.4c0-3.3 2.7-6 6-6h260.2c3.3 0 6 2.7 6 6v9.4z" fill="#ecf4f6"/><circle class="st8" cx="39.9" cy="25.3" r="2.2"/><circle class="st8" cx="46.7" cy="25.3" r="2.2"/><circle class="st8" cx="53.6" cy="25.3" r="2.2"/><linearGradient id="SVGID_5_" gradientUnits="userSpaceOnUse" x1="193.301" y1="71.196" x2="312.46" y2="71.196"><stop offset="0" stop-color="#9361f0"/><stop offset="1" stop-color="#00b2e5"/></linearGradient><path d="M304.2 98.1H201.5c-4.5 0-8.2-3.7-8.2-8.2V52.5c0-4.5 3.7-8.2 8.2-8.2h102.7c4.5 0 8.2 3.7 8.2 8.2v37.4c.1 4.6-3.6 8.2-8.2 8.2z" fill="url(#SVGID_5_)"/><g class="st10"><path class="st1" d="M257.6 68.9V71h-1.9v-2c-1.9-.1-3.7-.7-4.7-1.5l1-2.3c1 .7 2.3 1.2 3.7 1.4v-3.2c-2.1-.5-4.5-1.2-4.5-3.9 0-2 1.5-3.8 4.5-4.1v-2.1h1.9v2.1c1.4.1 2.8.5 3.9 1.2l-1 2.3c-1-.6-2-.9-2.9-1V61c2.1.5 4.4 1.2 4.4 3.9 0 2-1.4 3.7-4.4 4zm-1.9-8.4v-2.7c-1 .2-1.4.8-1.4 1.4 0 .7.6 1 1.4 1.3zm3.3 4.6c0-.7-.6-1-1.4-1.3v2.6c1-.2 1.4-.7 1.4-1.3z"/></g><g class="st10"><path class="st1" d="M266.7 82.4v1.7h-1.5v-1.6c-1.5-.1-2.9-.5-3.7-1.2l.8-1.8c.7.5 1.8.9 2.9 1V78c-1.6-.4-3.5-.9-3.5-3.1 0-1.6 1.1-2.9 3.5-3.2v-1.6h1.5v1.6c1.1.1 2.2.4 3 .9l-.7 1.8c-.8-.4-1.5-.7-2.3-.8v2.5c1.6.4 3.4.9 3.4 3 .1 1.7-1 3-3.4 3.3zm-1.4-6.5v-2.1c-.8.2-1.1.6-1.1 1.1 0 .5.4.8 1.1 1zm2.5 3.5c0-.5-.4-.8-1.1-1v2c.8-.1 1.1-.5 1.1-1z"/></g><path class="st1" d="M278.1 67v17.6-.1c.6.6 1.6 1 2.5 1.3 1 .2 2 .4 3.1.4 2.1 0 4.4-.5 6.1-1.8l-.1.2V67.1v.1c-.2-.4-.6-.7-.9-.9-.4-.2-.8-.4-1.2-.5-.8-.3-1.7-.4-2.5-.4-1.6-.1-2.9 0-4 .2s-1.9.6-2.4 1c-.2.2-.4.3-.5.4-.1-.1-.1 0-.1 0s.1-.3.6-.7c.5-.4 1.3-.8 2.4-1.1 1.1-.3 2.5-.4 4.1-.3.8 0 1.7.1 2.5.4.9.3 1.8.6 2.4 1.6v17.6l-.1.1c-1.9 1.4-4.3 1.9-6.4 1.9-1.1 0-2.2-.1-3.2-.4-1-.3-2-.7-2.7-1.4v-.1c.1-5.2.1-9.6.2-12.8 0-1.5.1-2.7.1-3.6v-1c0-.1 0-.2.1-.2z"/><path class="st1" d="M290 67s-.5.5-1.6 1c-1 .5-2.7.9-4.4.9-1.8 0-3.4-.3-4.4-.8-1.1-.5-1.6-.9-1.6-1 0-.1.7.3 1.7.7 1 .4 2.6.6 4.3.6 1.7 0 3.3-.3 4.3-.7 1-.4 1.6-.8 1.7-.7zm0 4.4s-.5.5-1.6 1c-1 .5-2.7.9-4.4.9-1.8 0-3.4-.3-4.4-.8-1.1-.5-1.6-.9-1.6-1 0-.1.7.3 1.7.7 1 .4 2.6.6 4.3.6 1.7 0 3.3-.3 4.3-.7 1-.4 1.6-.8 1.7-.7zm0 4.3s-.5.5-1.6 1c-1 .5-2.7.9-4.4.9-1.8 0-3.4-.3-4.4-.8-1.1-.5-1.6-.9-1.6-1 0-.1.7.3 1.7.7 1 .4 2.6.6 4.3.6 1.7 0 3.3-.3 4.3-.7 1-.3 1.6-.7 1.7-.7zm0 4.4s-.5.5-1.6 1c-1 .5-2.7.9-4.4.9-1.8 0-3.4-.3-4.4-.8-1.1-.5-1.6-.9-1.6-1 0-.1.7.3 1.7.7 1 .4 2.6.6 4.3.6 1.7 0 3.3-.3 4.3-.7 1-.4 1.6-.7 1.7-.7z"/><path class="st1" d="M290 58v26.6-.1c.6.6 1.6 1.1 2.6 1.3 1 .2 2 .3 3.1.3 2.1 0 4.3-.5 6.1-1.8l-.1.2c0-10.2 0-19.5.1-26.5v.1c-.2-.4-.6-.7-1-.9-.4-.2-.8-.4-1.2-.5-.9-.3-1.7-.4-2.5-.4-1.6-.1-3 0-4 .2-1.1.2-1.9.6-2.4 1-.2.2-.4.3-.5.4-.1 0-.2.1-.2.1s0-.1.1-.2.2-.3.5-.5c.5-.4 1.3-.8 2.4-1.1 1.1-.3 2.5-.4 4.1-.3.8 0 1.7.1 2.5.4.9.3 1.8.6 2.4 1.6 0 7 0 16.3.1 26.5v.1l-.1.1c-1.9 1.4-4.2 1.9-6.4 1.9-1.1 0-2.2-.1-3.2-.4-1-.3-2-.6-2.8-1.5v-.1c.1-7.8.1-14.4.2-19.2 0-2.3.1-4.2.1-5.5v-1.5c.1-.1.1-.3.1-.3z"/><path class="st1" d="M301.9 67s-.5.5-1.6 1c-1 .5-2.7.9-4.4.9-1.8 0-3.4-.3-4.4-.8-1.1-.5-1.6-.9-1.6-1 0-.1.7.3 1.7.7 1 .4 2.6.6 4.3.6 1.7 0 3.3-.3 4.3-.7 1.1-.4 1.7-.8 1.7-.7zm0 4.4s-.5.5-1.6 1c-1 .5-2.7.9-4.4.9-1.8 0-3.4-.3-4.4-.8-1.1-.5-1.6-.9-1.6-1 0-.1.7.3 1.7.7 1 .4 2.6.6 4.3.6 1.7 0 3.3-.3 4.3-.7 1.1-.4 1.7-.8 1.7-.7zm0-8.9s-.5.5-1.6 1c-1 .5-2.7.9-4.4.9-1.8 0-3.4-.3-4.4-.8-1.1-.5-1.6-.9-1.6-1 0-.1.7.3 1.7.7 1 .4 2.6.6 4.3.6 1.7 0 3.3-.3 4.3-.7 1.1-.4 1.7-.8 1.7-.7zm0-4.5s-.5.5-1.6 1c-1 .5-2.7.9-4.4.9-1.8 0-3.4-.3-4.4-.8-1.1-.5-1.6-.9-1.6-1 0-.1.7.3 1.7.7 1 .4 2.6.6 4.3.6 1.7 0 3.3-.3 4.3-.7 1.1-.4 1.7-.8 1.7-.7zm0 17.7s-.5.5-1.6 1c-1 .5-2.7.9-4.4.9-1.8 0-3.4-.3-4.4-.8-1.1-.5-1.6-.9-1.6-1 0-.1.7.3 1.7.7 1 .4 2.6.6 4.3.6 1.7 0 3.3-.3 4.3-.7 1.1-.3 1.7-.7 1.7-.7zm0 4.4s-.5.5-1.6 1c-1 .5-2.7.9-4.4.9-1.8 0-3.4-.3-4.4-.8-1.1-.5-1.6-.9-1.6-1 0-.1.7.3 1.7.7 1 .4 2.6.6 4.3.6 1.7 0 3.3-.3 4.3-.7 1.1-.4 1.7-.7 1.7-.7zM207.2 84v1.4H206v-1.3c-1.2-.1-2.4-.5-3.1-1l.7-1.5c.6.5 1.5.8 2.4.9v-2c-1.4-.3-2.9-.8-2.9-2.5 0-1.3.9-2.4 2.9-2.6V74h1.2v1.3c.9.1 1.8.3 2.5.7l-.6 1.5c-.6-.4-1.3-.6-1.9-.6V79c1.4.3 2.9.8 2.9 2.5-.1 1.2-1 2.3-2.9 2.5zm-1.2-5.4v-1.7c-.7.1-.9.5-.9.9s.3.6.9.8zm2.1 3c0-.4-.4-.7-.9-.8v1.7c.6-.2.9-.6.9-.9zm6-6.3v8.6h-2v-7h-1.7v-1.6h3.7zm7.9 5.9c0 1.5-1.1 2.8-3.6 2.8-1.2 0-2.4-.3-3.3-.9l.8-1.5c.7.5 1.5.8 2.4.8 1 0 1.6-.4 1.6-1.1 0-.7-.4-1.1-2-1.1h-2.2l.4-4.8h5.2V77h-3.6l-.1 1.6h.7c2.7 0 3.7 1.1 3.7 2.6zm3.2 1.6c0 .3 0 .6-.3 1.2l-.7 1.8H223l.5-2c-.4-.2-.7-.5-.7-1 0-.7.5-1.2 1.2-1.2s1.2.5 1.2 1.2zm.7-3.2c0-2.8 1.6-4.4 3.7-4.4s3.7 1.6 3.7 4.4c0 2.8-1.6 4.4-3.7 4.4-2.1.1-3.7-1.5-3.7-4.4zm5.4 0c0-2-.7-2.8-1.7-2.8s-1.7.8-1.7 2.8c0 2 .7 2.8 1.7 2.8s1.7-.8 1.7-2.8zm2.9 0c0-2.8 1.6-4.4 3.7-4.4s3.7 1.6 3.7 4.4c0 2.8-1.6 4.4-3.7 4.4-2.1.1-3.7-1.5-3.7-4.4zm5.4 0c0-2-.7-2.8-1.7-2.8s-1.7.8-1.7 2.8c0 2 .7 2.8 1.7 2.8s1.7-.8 1.7-2.8zm3 0c0-2.8 1.6-4.4 3.7-4.4s3.7 1.6 3.7 4.4c0 2.8-1.6 4.4-3.7 4.4-2.2.1-3.7-1.5-3.7-4.4zm5.3 0c0-2-.7-2.8-1.7-2.8s-1.7.8-1.7 2.8c0 2 .7 2.8 1.7 2.8s1.7-.8 1.7-2.8z"/><text transform="translate(202.209 70.181)" class="st1" font-size="8.231" font-family="Poppins-Medium">Total Earns</text></svg>